<svg width="334" height="345" viewBox="0 0 334 345" fill="none" xmlns="http://www.w3.org/2000/svg">
<path fill-rule="evenodd" clip-rule="evenodd" d="M321.527 211.102C322.518 209.234 323.516 207.353 324.507 205.484C324.759 204.807 324.947 204.114 325.282 203.481C327.672 198.941 329.412 194.136 330.821 189.209C335.03 174.592 335.1 159.974 330.789 145.365C327.676 134.844 322.656 125.273 316.401 116.328C308.843 105.534 299.856 96.0739 290.073 87.3307C282.051 80.191 273.598 73.6289 264.831 67.4483C257.841 62.5046 250.706 57.7645 243.374 53.3966C236.105 49.0453 228.734 44.92 221.413 40.7002C221.042 40.4836 220.707 40.1966 220.352 39.9522C219.078 39.2671 217.816 38.5876 216.542 37.9025C215.974 37.6506 215.383 37.4377 214.83 37.1581C205.311 32.1607 195.662 27.3762 185.844 22.9768C173.907 17.6498 161.757 12.8616 149.294 8.96582C137.444 5.2756 125.425 2.41121 113.085 0.965118C101.641 -0.369878 90.2195 -0.458777 78.8198 1.58353C62.4383 4.53126 48.2065 11.6728 36.4868 23.7156C31.939 28.3853 27.9834 33.5327 24.5353 39.0764C23.8034 40.254 22.9373 41.3427 22.1208 42.4741C21.0781 44.4386 20.0354 46.4031 19.0001 48.3528C18.704 49.2175 18.498 50.1137 18.11 50.9469C13.6652 60.5104 10.379 70.5034 7.87247 80.7557C4.46486 94.7093 2.45855 108.905 1.32759 123.216C-0.34955 144.052 -0.309093 164.91 0.733601 185.778C1.75239 205.979 3.81019 226.052 7.87247 245.879C10.6346 259.301 14.2886 272.464 19.5646 285.119C23.785 295.283 28.982 304.896 35.7273 313.593C41.2699 320.724 47.6603 326.934 55.1725 331.948C56.4101 332.772 57.611 333.631 58.8321 334.483C60.3584 335.305 61.8719 336.118 63.3982 336.94C63.812 337.075 64.2349 337.16 64.6285 337.336C66.986 338.288 69.3013 339.354 71.6956 340.202C81.2435 343.622 91.1261 345.017 101.235 345C114.227 344.979 126.909 342.726 139.401 339.238C152.941 335.468 166.003 330.363 178.698 324.355C208.066 310.471 235.579 293.468 261.626 274.036C275.573 263.634 288.701 252.296 300.448 239.42C308.038 231.125 315.055 222.38 320.522 212.483C320.806 211.983 321.196 211.556 321.527 211.098V211.102Z" fill="#009AF1"/>
<path d="M196.302 240.2C194.302 240.333 192.769 240.133 191.702 239.6C190.769 239.067 189.902 238.133 189.102 236.8C187.636 234.133 185.169 230.067 181.702 224.6C178.369 219 174.369 212.6 169.702 205.4C165.169 198.2 160.302 190.6 155.102 182.6C150.036 174.6 144.969 166.733 139.902 159C134.969 151.267 130.369 144.2 126.102 137.8C121.969 131.267 118.436 125.867 115.502 121.6C112.702 117.2 110.969 114.533 110.302 113.6C110.036 113.2 109.636 113.067 109.102 113.2C108.569 113.2 108.302 113.467 108.302 114V206.4C108.302 216.533 109.969 223.6 113.302 227.6C116.769 231.467 120.702 233.4 125.102 233.4C126.036 233.4 126.702 233.733 127.102 234.4C127.636 235.067 127.902 235.867 127.902 236.8C127.902 237.6 127.636 238.333 127.102 239C126.702 239.667 126.036 240 125.102 240C123.769 240 121.569 239.933 118.502 239.8C115.436 239.533 110.902 239.4 104.902 239.4C97.969 239.4 93.2357 239.533 90.7023 239.8C88.3023 239.933 86.369 240 84.9023 240C83.969 240 83.2357 239.667 82.7023 239C82.3023 238.333 82.1023 237.6 82.1023 236.8C82.1023 235.867 82.3023 235.067 82.7023 234.4C83.2357 233.733 83.969 233.4 84.9023 233.4C89.569 233.4 93.369 231.467 96.3023 227.6C99.2357 223.6 100.702 216.6 100.702 206.6V115.2C100.702 109.067 99.2357 105.267 96.3023 103.8C93.5023 102.2 90.1023 101.4 86.1023 101.4C85.169 101.4 84.4357 101.067 83.9023 100.4C83.5023 99.7333 83.3023 98.9333 83.3023 98C83.3023 97.2 83.5023 96.4667 83.9023 95.8C84.4357 95.1333 85.169 94.8 86.1023 94.8C87.169 94.8 89.6357 94.8667 93.5023 95C97.369 95.1333 104.236 95.2 114.102 95.2C116.369 95.2 118.102 95.6 119.302 96.4C120.502 97.0667 121.569 98.2 122.502 99.8C123.169 100.867 124.836 103.467 127.502 107.6C130.169 111.733 133.502 116.933 137.502 123.2C141.502 129.333 145.836 136 150.502 143.2C155.302 150.4 160.036 157.6 164.702 164.8C169.369 172 173.702 178.667 177.702 184.8C181.836 190.933 185.236 196.067 187.902 200.2C190.702 204.2 192.436 206.667 193.102 207.6C193.636 208.133 194.169 208.333 194.702 208.2C195.236 208.067 195.502 207.667 195.502 207V128.6C195.502 118.733 193.969 111.733 190.902 107.6C187.836 103.467 184.169 101.4 179.902 101.4C178.969 101.4 178.236 101.067 177.702 100.4C177.302 99.7333 177.102 98.9333 177.102 98C177.102 97.2 177.302 96.4667 177.702 95.8C178.236 95.1333 178.969 94.8 179.902 94.8C181.236 94.8 183.169 94.8667 185.702 95C188.369 95.1333 192.769 95.2 198.902 95.2C204.502 95.2 208.636 95.1333 211.302 95C213.969 94.8667 215.969 94.8 217.302 94.8C218.102 94.8 218.769 95.1333 219.302 95.8C219.836 96.4667 220.102 97.2 220.102 98C220.102 98.9333 219.836 99.7333 219.302 100.4C218.769 101.067 218.102 101.4 217.302 101.4C215.302 101.4 213.169 102.267 210.902 104C208.769 105.733 206.902 108.6 205.302 112.6C203.836 116.6 203.102 122 203.102 128.8V203.8C203.102 205.133 203.102 206.4 203.102 207.6C203.102 208.667 203.102 209.667 203.102 210.6C203.102 215.267 203.102 219.267 203.102 222.6C203.236 225.933 203.436 229.867 203.702 234.4C203.836 236.133 202.969 237.533 201.102 238.6C199.369 239.667 197.769 240.2 196.302 240.2Z" fill="white"/>
</svg>
